<?xml version="1.0" encoding="utf-8"?>
<!-- Generator: Adobe Illustrator 24.0.0, SVG Export Plug-In . SVG Version: 6.00 Build 0)  -->
<svg version="1.1" id="Layer_1" xmlns="http://www.w3.org/2000/svg" xmlns:xlink="http://www.w3.org/1999/xlink" x="0px" y="0px"
	 viewBox="0 0 322 77" style="enable-background:new 0 0 322 77;" xml:space="preserve">
<style type="text/css">
	.st0{fill:#FFFFFF;}
	.st1{fill:none;stroke:#FFFFFF;stroke-width:2;stroke-miterlimit:10;}
</style>
<g id="Layer_1_1_">
	<g>
		<path class="st0" d="M39,29.1v22.5h-3.1V34.3c-0.3,1-0.9,2.1-1.4,3.1L29.2,48h-3.1l-5.4-10.5c-0.3-0.5-0.5-1.2-0.9-1.7
			c-0.3-0.5-0.5-0.9-0.5-1.4v17.1h-3.1V29h3.6l5,9.9c1.4,2.6,2.2,4.7,2.8,6.1c0.2-0.9,0.5-1.7,1-2.6c0.5-1,1-2.1,1.7-3.5l5-9.9
			L39,29.1L39,29.1z"/>
		<path class="st0" d="M60.1,29.1v0.2l-8.3,13.5v8.8h-3.1v-8.8l-8.1-13.3v-0.2H44l6.4,10.5L57,29.1H60.1z"/>
		<path class="st0" d="M78.6,40.9c0.7,0.5,1.2,1.2,1.4,1.9c0.3,0.7,0.5,1.4,0.5,2.2c0,2.1-0.7,3.6-2.2,4.8c-1.6,1.2-3.6,1.7-6.4,1.7
			H63V29.1h8.1c1.7,0,3.3,0.2,4.5,0.7s2.1,1.2,2.8,2.1c0.7,0.9,0.9,1.9,0.9,3.1c0,1-0.3,1.9-0.9,2.8s-1.4,1.6-2.6,1.9
			C77.2,40,77.9,40.4,78.6,40.9z M68.1,33.1v5.2h2.8c2.6,0,3.8-0.9,3.8-2.8c0-0.9-0.3-1.4-0.9-1.9c-0.5-0.3-1.4-0.7-2.4-0.7h-3.3
			V33.1z M74.6,46.8c0.7-0.5,0.9-1.2,0.9-2.1s-0.3-1.6-1-2.1s-1.6-0.7-2.9-0.7H68v5.7h3.5C72.9,47.6,73.9,47.3,74.6,46.8z"/>
		<path class="st0" d="M84.5,51.6V29.1h4.8v22.5H84.5z"/>
		<path class="st0" d="M104.4,39.7l9.3,11.6v0.3h-6.1L99,40.5v11.1h-4.8V29.1H99v10.4l8.6-10.4h5.5v0.3L104.4,39.7z"/>
		<path class="st0" d="M121.3,47.6h10.4v4h-15.2V29.1h15v4h-10.2v5h8.8l-0.5,4h-8.3V47.6z"/>
		<path class="st0" d="M137.7,51.3c-1.4-0.5-2.6-1-3.6-1.9l1.6-2.2c0.9,0.7,1.9,1.2,3.1,1.6c1.2,0.3,2.2,0.5,3.3,0.5
			c1.7,0,2.9-0.3,3.8-0.9s1.4-1.6,1.4-2.8c0-0.7-0.2-1.4-0.5-1.7c-0.3-0.5-0.9-0.9-1.6-1.2c-0.7-0.3-1.7-0.9-3.1-1.2l-0.5-0.2
			c-1.4-0.5-2.6-1-3.5-1.6s-1.6-1.2-2.2-1.9c-0.5-0.9-0.9-1.9-0.9-3.1s0.3-2.4,1-3.3c0.7-0.9,1.6-1.6,2.8-1.9s2.4-0.7,3.6-0.7
			c1.4,0,2.8,0.2,4,0.5s2.4,0.9,3.6,1.7l-1.4,2.2c-1-0.7-2.1-1-2.9-1.4c-0.9-0.3-2.1-0.3-3.1-0.3c-1.2,0-2.2,0.2-3.1,0.7
			c-0.9,0.5-1.2,1.2-1.2,2.4c0,0.5,0.2,1,0.3,1.4c0.3,0.3,0.7,0.9,1.4,1.2s1.6,0.7,2.8,1.2l0.5,0.2c1.6,0.5,2.8,1,3.6,1.6
			c0.9,0.5,1.7,1.2,2.4,2.1c0.7,0.9,1,2.1,1,3.5s-0.3,2.6-1,3.5c-0.7,1-1.6,1.7-2.9,2.2c-1.2,0.5-2.8,0.7-4.5,0.7
			C140.5,51.9,139.1,51.8,137.7,51.3z"/>
		<path class="st0" d="M158,50.6c-1.6-1-2.8-2.4-3.6-4.1s-1.2-3.8-1.2-6.1c0-2.6,0.5-4.7,1.4-6.4c1-1.7,2.2-2.9,3.8-3.8
			s3.5-1.2,5.4-1.2c2.2,0,4.1,0.5,5.7,1.6c1.6,1,2.8,2.4,3.6,4.1s1.2,3.8,1.2,6.1c0,2.6-0.5,4.7-1.4,6.4c-1,1.7-2.2,2.9-3.8,3.8
			c-1.6,0.9-3.5,1.2-5.4,1.2C161.4,51.9,159.5,51.4,158,50.6z M167.8,48.1c1-0.7,1.9-1.7,2.4-3.1c0.5-1.4,0.9-2.8,0.9-4.7
			c0-1.7-0.3-3.5-0.9-4.7c-0.5-1.4-1.4-2.4-2.4-3.1c-1-0.7-2.4-1.2-4-1.2s-2.9,0.3-4.1,1c-1,0.7-1.9,1.7-2.4,3.1
			c-0.5,1.4-0.9,2.8-0.9,4.7c0,1.7,0.3,3.5,0.9,4.7c0.5,1.4,1.4,2.4,2.4,3.1s2.4,1.2,4,1.2C165.4,49.4,166.8,48.8,167.8,48.1z"/>
		<path class="st0" d="M182,48.8h11v2.8h-14.2V29.1h3.1C182,29.1,182,48.8,182,48.8z"/>
		<path class="st0" d="M211.9,31.9c2.1,1.7,3.1,4.7,3.1,8.5c0,2.6-0.5,4.7-1.6,6.2c-1,1.7-2.4,2.9-4.3,3.6c-1.9,0.9-4,1.2-6.6,1.2
			h-6.2V29h6.7C206.9,29.1,209.8,30,211.9,31.9z M207.2,48.1c1.4-0.5,2.4-1.4,3.1-2.6c0.7-1.2,1.2-2.9,1.2-5.2c0-2.9-0.7-5-2.1-6.4
			c-1.4-1.4-3.5-2.1-6.4-2.1h-3.6v16.9h2.6C204.1,48.8,205.8,48.7,207.2,48.1z"/>
	</g>
</g>
<g id="Capa_1">
	<g>
		<g>
			<path class="st0" d="M287.9,35.3c-4.8,0-8.8,4-8.8,8.8s4,8.8,8.8,8.8s8.8-4,8.8-8.8S292.8,35.3,287.9,35.3z M287.9,47.9
				c-2.1,0-3.8-1.7-3.8-3.8s1.7-3.8,3.8-3.8s3.8,1.7,3.8,3.8S290,47.9,287.9,47.9z"/>
		</g>
	</g>
	<g>
		<g>
			<path class="st0" d="M258.6,41.2c-0.2-0.5-0.7-0.9-1.2-0.9h-7.1c2.1,0,3.8,1.7,3.8,3.8s-1.7,3.8-3.8,3.8s-3.8-1.7-3.8-3.8
				s1.7-3.8,3.8-3.8h-7.1c-0.5,0-1,0.3-1.2,0.9c-0.3,1-0.5,1.9-0.5,2.9c0,4.8,4,8.8,8.8,8.8s8.8-4,8.8-8.8
				C259.1,43.3,258.9,42.2,258.6,41.2z"/>
		</g>
	</g>
	<g>
		<g>
			<path class="st0" d="M262.9,22.9h-17.6c-2.1,0-3.8,1.7-3.8,3.8s1.7,3.8,3.8,3.8h17.6c2.1,0,3.8-1.7,3.8-3.8
				C266.5,24.4,265,22.9,262.9,22.9z"/>
		</g>
	</g>
	<g>
		<g>
			<path class="st0" d="M275.8,25.5c-0.7-0.3-1.4,0-1.6,0.7l-6.2,15c-0.3,0.7,0,1.4,0.7,1.6c0.2,0,0.3,0.2,0.5,0.2
				c0.5,0,1-0.3,1.2-0.7l6.2-15C276.9,26.5,276.5,25.6,275.8,25.5z"/>
		</g>
	</g>
	<g>
		<g>
			<path class="st0" d="M262.2,33.2c-0.2-0.3-0.5-0.5-1-0.5h-16.1c-1.4,0-2.8-0.5-4-1.6c-0.5-0.3-1.2-0.3-1.7,0.2
				c-0.2,0.2-0.5,0.5-0.7,0.7c-1.6,1.9-2.4,4.3-2.4,6.9c0,2.1,1.7,3.8,3.8,3.8h20.1c0.7,0,1.2-0.5,1.2-1.2c0,0,0.3-4,0.9-7.4
				C262.5,33.9,262.5,33.6,262.2,33.2z"/>
		</g>
	</g>
	<g>
		<g>
			<path class="st0" d="M279,12.3c-1.2,0.2-2.1,1.6-1.6,2.8l0,0c0.3,0.9,1,1.4,2.1,1.4h2.2l1.2-5L279,12.3z"/>
		</g>
	</g>
	<g>
		<g>
			<path class="st0" d="M283.8,10.6c-0.3-0.3-0.7-0.5-1.2-0.3l-4,0.9c-1,0.2-1.7,0.9-2.2,1.6c-0.5,0.9-0.5,1.9-0.3,2.8
				c0.5,1.4,1.7,2.2,3.3,2.2h2.2c0.5,0,1-0.3,1.2-1l1.2-5C284.3,11.5,284.1,10.9,283.8,10.6z M280.7,15.3h-1.2
				c-0.3,0-0.7-0.2-0.9-0.7c-0.2-0.3,0-0.5,0-0.7s0.2-0.3,0.5-0.3l1.9-0.3L280.7,15.3z"/>
		</g>
	</g>
	<g>
		<g>
			<path class="st0" d="M287.9,30.3c-2.8,0-3.8-2.8-3.8-2.9l-6.6-15.6c-0.7-1.7-2.6-2.8-4.5-2.2c-1,0.3-1.9,1-2.4,1.9
				c-0.5,1-0.7,2.1-0.3,3.1l1.2,3.8l3.5-2.1c0.5-0.3,1.4-0.2,1.7,0.3s0.2,1.4-0.3,1.7l-4,2.4l2.1,6.1c0,0.2,0.2,0.3,0.2,0.3l2.2,2.8
				c1,1.4,1,3.3,0,4.7c-0.7,0.9-1.2,1.9-1.7,2.8c-0.5,1.2-0.3,2.4,0.3,3.6c0.7,1,1.9,1.7,3.1,1.7h1.9c0.7,0,1.2-0.5,1.2-1.2
				c0-0.2-0.2-0.5-0.2-0.7l5.5-3.6c0.2,0.3,0.5,0.5,1,0.5c2.6,0,6.9,0,8.3-1.2c0.3-0.3,0.5-0.9,0.5-1.2
				C296.8,32.7,291.8,30.3,287.9,30.3z"/>
		</g>
	</g>
	<g>
		<g>
			<path class="st0" d="M275.2,14.6c-0.3-0.5-1.2-0.9-1.7-0.3l-6.2,3.8c-0.5,0.3-0.9,1.2-0.3,1.7c0.2,0.3,0.7,0.7,1,0.7
				c0.2,0,0.5,0,0.7-0.2l6.2-3.8C275.3,16,275.5,15.3,275.2,14.6z"/>
		</g>
	</g>
	<g>
		<g>
			<path class="st0" d="M269.1,40.3h-8.8c-0.7,0-1.2,0.5-1.2,1.2s0.5,1.2,1.2,1.2h8.8c0.7,0,1.2-0.5,1.2-1.2
				C270.3,41,269.8,40.3,269.1,40.3z"/>
		</g>
	</g>
	<polyline class="st1" points="245.4,8 225.9,8 225.9,61.6 245.8,61.6 	"/>
	<polyline class="st1" points="288.5,8 308,8 308,61.6 288.1,61.6 	"/>
</g>
</svg>
